<svg xmlns="http://www.w3.org/2000/svg" viewBox="0 0 65.23 41.24"><defs><style>.cls-1{fill:#4ecdc4;}.cls-2{fill:#1a535c;}</style></defs><title>function05</title><g id="レイヤー_2" data-name="レイヤー 2"><g id="レイヤー_1-2" data-name="レイヤー 1"><path class="cls-1" d="M61.6,32.19l-7.33-3a3.45,3.45,0,0,1-2-3.13V25a4.54,4.54,0,0,1,.25-1.5s4.61-6.15,4.61-11.83C57.12,4.56,52.59,0,47,0S36.86,4.56,36.86,11.65c0,5.68,4.61,11.83,4.61,11.83a4.54,4.54,0,0,1,.25,1.5v1.09a3.45,3.45,0,0,1-2,3.13l-7.33,3a5.75,5.75,0,0,0-3.25,4.2l-.38,4.85H65.23l-.37-4.85A5.79,5.79,0,0,0,61.6,32.19Z"/><path class="cls-2" d="M27.77,13.34a9,9,0,0,0-12.69,0l-4.89,4.89L22.88,30.92,27.77,26A9,9,0,0,0,27.77,13.34Zm-3.43.77a1.51,1.51,0,0,1-1.77,1.2,7.37,7.37,0,0,0-2.86,0,1.5,1.5,0,0,1-1.35-.42,1.45,1.45,0,0,1-.42-.78,1.52,1.52,0,0,1,1.2-1.77,10.34,10.34,0,0,1,2-.19,11.2,11.2,0,0,1,2,.19A1.51,1.51,0,0,1,24.34,14.11Z"/><path class="cls-1" d="M2.63,25.79A9,9,0,1,0,15.32,38.48l4.89-4.89L7.52,20.9Z"/></g></g></svg>