<svg xmlns="http://www.w3.org/2000/svg" viewBox="0 0 45.99 58.38"><defs><style>.cls-1{fill:#4ecdc4;}.cls-2{fill:#1a535c;}</style></defs><title>function02</title><g id="レイヤー_2" data-name="レイヤー 2"><g id="レイヤー_1-2" data-name="レイヤー 1"><path class="cls-1" d="M31.12,0a9.21,9.21,0,0,0-9.26,7.94A9.2,9.2,0,0,0,12.6,0C7.26-.1,2.84,4,2.84,11.51c0,9.63,10.89,14.08,18.34,21.27.26.25.2.24.2.24a.63.63,0,0,0,.48.24h0a.65.65,0,0,0,.49-.24s-.06,0,.19-.24C30,25.59,40.88,21.14,40.88,11.51,40.88,4,36.47-.1,31.12,0Z"/><path class="cls-1" d="M45.15,42.32c-1.13-1.23-3.24-1-4.65.07s-7.8,5.37-7.8,5.37H22l0,0a1,1,0,1,1,.06-2h7.86a2.88,2.88,0,0,0,0-5.75H18.42c-7.17,0-8.66,3-9.91,5.08V56.91L21.94,58.3c5.06.27,7.48,0,11.08-3,0,0,10.75-7.85,12-8.93A2.7,2.7,0,0,0,45.15,42.32Z"/><rect class="cls-2" y="42.27" width="6.23" height="15.16"/></g></g></svg>