<svg xmlns="http://www.w3.org/2000/svg" viewBox="0 0 57.07 42.99"><defs><style>.cls-1{fill:#4ecdc4;}.cls-2{fill:#1a535c;}</style></defs><title>function03</title><g id="レイヤー_2" data-name="レイヤー 2"><g id="レイヤー_1-2" data-name="レイヤー 1"><path class="cls-1" d="M10.67,31.77a1.48,1.48,0,0,1-1.26-.69A1.5,1.5,0,0,1,9.85,29l13.62-8.77a1.44,1.44,0,0,1,1.16-.2l13.75,3.28L51.19,12.4a1.5,1.5,0,1,1,2,2.28L39.75,26.1a1.51,1.51,0,0,1-1.32.32L24.56,23.1,11.48,31.53A1.5,1.5,0,0,1,10.67,31.77Z"/><path class="cls-1" d="M55.57,43H1.5A1.5,1.5,0,0,1,0,41.49V1.5a1.5,1.5,0,0,1,3,0V40H55.57a1.5,1.5,0,0,1,0,3Z"/><path class="cls-2" d="M10.67,34.3a4,4,0,1,1,4-4A4,4,0,0,1,10.67,34.3Z"/><path class="cls-2" d="M24.28,26.08a4,4,0,1,1,4-4A4,4,0,0,1,24.28,26.08Z"/><path class="cls-2" d="M38.77,29a4,4,0,1,1,4-4A4,4,0,0,1,38.77,29Z"/><path class="cls-2" d="M52.17,17.57a4,4,0,1,1,4-4A4,4,0,0,1,52.17,17.57Z"/></g></g></svg>