<svg xmlns="http://www.w3.org/2000/svg" viewBox="0 0 53.05 49.13"><defs><style>.cls-1{fill:#1a535c;}.cls-2{fill:#4ecdc4;}.cls-3{fill:#fff;}</style></defs><title>function07</title><g id="レイヤー_2" data-name="レイヤー 2"><g id="レイヤー_1-2" data-name="レイヤー 1"><path class="cls-1" d="M39.07,41.53H21.16a9.08,9.08,0,0,0,2.5,4.91l0,0a9.06,9.06,0,0,0,11.65,1l0,0,.32-.25L36,47l.08-.07a9.06,9.06,0,0,0,3-5.34h0Z"/><path class="cls-2" d="M51.74,32.26a11.63,11.63,0,0,1-5-9.58V20A17.17,17.17,0,0,0,35.59,4a16.12,16.12,0,0,0-5.48-1h-.32a16.6,16.6,0,0,0-16.28,16.6v3a11.65,11.65,0,0,1-5,9.58,3.14,3.14,0,0,0-1.32,2.58,3.19,3.19,0,0,0,.94,2.26,3.13,3.13,0,0,0,2.25.94h39.5a3.19,3.19,0,0,0,3.19-3.2A3.13,3.13,0,0,0,51.74,32.26Z"/><path class="cls-3" d="M23.45,12.45a5.61,5.61,0,0,1,3.7-1.52A3.49,3.49,0,0,1,29.81,12c1.47,1.62,1,4.44-1,6.29a5.65,5.65,0,0,1-3.71,1.53,3.49,3.49,0,0,1-2.65-1.1C20.92,17.12,21.4,14.3,23.45,12.45Z"/><path class="cls-1" d="M6.83,16.2a1.36,1.36,0,0,1-1.25-.84A8.21,8.21,0,0,1,9.83,4.67a1.35,1.35,0,1,1,1.1,2.46,5.52,5.52,0,0,0-2.85,7.2,1.35,1.35,0,0,1-.73,1.76A1.39,1.39,0,0,1,6.83,16.2Z"/><path class="cls-1" d="M2.25,18.1A1.35,1.35,0,0,1,1,17.27,13.29,13.29,0,0,1,7.86.11,1.35,1.35,0,1,1,9,2.58,10.57,10.57,0,0,0,3.49,16.23,1.35,1.35,0,0,1,2.76,18,1.29,1.29,0,0,1,2.25,18.1Z"/></g></g></svg>