<svg xmlns="http://www.w3.org/2000/svg" viewBox="0 0 51.2 50.75"><defs><style>.cls-1{fill:#4ecdc4;}.cls-2{fill:#1a535c;}</style></defs><title>function08</title><g id="レイヤー_2" data-name="レイヤー 2"><g id="レイヤー_1-2" data-name="レイヤー 1"><path class="cls-1" d="M41.49,28.41V23.89a15.93,15.93,0,0,0-31.86,0v4.52a15.93,15.93,0,0,0,31.86,0Zm-15.93,13a13,13,0,0,1-13-13V23.89a14.17,14.17,0,0,1,.08-1.47c7.62-.58,12.87-2.1,16.4-3.7a38.15,38.15,0,0,0,9.53,4.19c0,.32.05.65.05,1v4.52A13,13,0,0,1,25.56,41.44Z"/><path class="cls-2" d="M48.64,18a23.95,23.95,0,0,0-46.41.11A3.67,3.67,0,0,0,0,21.47v9.19a3.68,3.68,0,0,0,7.35,0V21.47a3.68,3.68,0,0,0-2-3.27,20.92,20.92,0,0,1,40.27.15,3.65,3.65,0,0,0-1.75,3.12v9.19A3.68,3.68,0,0,0,45.93,34a23.35,23.35,0,0,1-2,5.13,17.2,17.2,0,0,1-2.74,3.81A4.33,4.33,0,0,0,38.55,42a4.41,4.41,0,1,0,4.08,2.84l.22-.2a23.32,23.32,0,0,0,5.49-10.42,3.67,3.67,0,0,0,2.86-3.57V21.47A3.67,3.67,0,0,0,48.64,18Z"/><path class="cls-1" d="M19.28,24.86a2,2,0,1,0,2,2A2,2,0,0,0,19.28,24.86Z"/><path class="cls-1" d="M31.62,24.86a2,2,0,1,0,2,2A2,2,0,0,0,31.62,24.86Z"/></g></g></svg>