<svg xmlns="http://www.w3.org/2000/svg" viewBox="0 0 47.71 48.12"><defs><style>.cls-1{fill:#1a535c;}.cls-2{fill:#4ecdc4;}</style></defs><title>function04</title><g id="レイヤー_2" data-name="レイヤー 2"><g id="レイヤー_1-2" data-name="レイヤー 1"><polygon class="cls-1" points="42.71 3.54 39.19 0 39.19 0.01 39.17 0 39.17 8.53 47.71 8.53 42.71 3.54"/><path class="cls-2" d="M37.13,8.53V0H12.72a2.56,2.56,0,0,0-2.56,2.56V44.32a1.76,1.76,0,0,0,1.76,1.76h34a1.76,1.76,0,0,0,1.77-1.76V10.58H39.17A2,2,0,0,1,37.13,8.53ZM32.92,33.48H17.67V31.09H32.92v2.39Zm7.28-7.31H17.67V23.78H40.2Zm0-7.34H17.67V16.44H40.2Z"/><rect class="cls-1" x="5.11" y="22.65" width="7.58" height="25.08" transform="translate(-14.52 7.46) rotate(-25.98)"/><polygon class="cls-2" points="0.09 17.1 0 25.58 3.41 23.91 6.82 22.25 0.09 17.1"/><polygon class="cls-1" points="3.02 19.35 0.09 17.1 0.05 20.72 3.02 19.35"/></g></g></svg>