<svg xmlns="http://www.w3.org/2000/svg" viewBox="0 0 55.56 50.05"><defs><style>.cls-1{fill:#4ecdc4;}.cls-2{fill:#fff;}.cls-3{fill:#1a535c;}</style></defs><title>function11</title><g id="レイヤー_2" data-name="レイヤー 2"><g id="レイヤー_1-2" data-name="レイヤー 1"><path class="cls-1" d="M0,4.84V39.25a4.84,4.84,0,0,0,4.84,4.84H50.72a4.85,4.85,0,0,0,4.84-4.84V4.84A4.85,4.85,0,0,0,50.72,0H4.84A4.84,4.84,0,0,0,0,4.84Z"/><rect class="cls-2" x="5.56" y="5.41" width="41.39" height="33.26"/><path class="cls-2" d="M52.7,22a2,2,0,1,1-2-2A2,2,0,0,1,52.7,22Z"/><path class="cls-3" d="M35.68,37.59V35.1c0-3.3-5-3.3-5,0V32.6c0-3.29-5-3.3-5,0v-10c0-3.3-5-3.3-5,0V42c-2.29-2.28-4.54-5.45-6.76-3.23a2.5,2.5,0,0,0,0,3.53L21,49.34A2.47,2.47,0,0,0,23,50c.76.06,14.42,0,15.18,0a2.47,2.47,0,0,0,2.5-2.46v-10C40.67,34.3,35.68,34.29,35.68,37.59Z"/></g></g></svg>