<svg xmlns="http://www.w3.org/2000/svg" viewBox="0 0 61 47.18"><defs><style>.cls-1{fill:#4ecdc4;}.cls-2{fill:#1a535c;}.cls-3{fill:#fff;}</style></defs><title>function12</title><g id="レイヤー_2" data-name="レイヤー 2"><g id="レイヤー_1-2" data-name="レイヤー 1"><path class="cls-1" d="M17.83,12.77H11.75L2.42,43.08A57.86,57.86,0,0,1,17.83,43c10.8,1.54,12.59,4.18,12.59,4.18v-29A17.18,17.18,0,0,0,17.83,12.77Z"/><path class="cls-1" d="M45.58,12.77h6.08L61,43.08A58,58,0,0,0,45.58,43C34.79,44.54,33,47.18,33,47.18v-29A17.18,17.18,0,0,1,45.58,12.77Z"/><rect class="cls-2" x="5.07" y="0.4" width="7.58" height="25.08" transform="translate(-4.74 5.13) rotate(-25.74)"/><polygon class="cls-3" points="17.6 31.07 17.72 22.59 14.31 24.24 10.89 25.89 17.6 31.07"/><polygon class="cls-2" points="14.67 28.81 17.6 31.07 17.65 27.45 14.67 28.81"/></g></g></svg>