<svg xmlns="http://www.w3.org/2000/svg" viewBox="0 0 55.9 52.2"><defs><style>.cls-1{fill:#4ecdc4;}.cls-2{fill:#fff;}.cls-3{fill:#1a535c;}</style></defs><title>アセット 1</title><g id="レイヤー_2" data-name="レイヤー 2"><g id="図"><rect class="cls-1" width="55.9" height="52.19" rx="4"/><path class="cls-2" d="M49.3,16.8l-.3-.2c-6.8-4.5-13.9-6.8-21-6.8S13.8,12.1,6.9,16.6l-.3.2,1.5,1.5L16,26.2h.2a24.1,24.1,0,0,1,12.7-3.7,18.4,18.4,0,0,1,11,3.4l.3.2,9.1-9.2ZM16.7,21.1l-2.2-4.7h0l1.9-.9,2,4.8Zm5.1-1.9-1.3-5h0l1.3-.3.8-.2.9,5.1Zm7-.8H27.1l-.2-5.2H29Zm5.3.8-1.7-.4.9-5.1h.1l2,.5Zm5.1,1.9-1.7-.8h.1l1.9-4.8h0l.3.2,1.6.7Z"/><path class="cls-3" d="M37.8,22.1l-.7-.2c-.1.1-.3.1-.4.3l-2.6,1.9-3.9,2.8-2.1,1.6-.3.2a3.7,3.7,0,0,0-1,1.7,2.6,2.6,0,0,0,.1,1.5,2.1,2.1,0,0,0,.6,1l.3.4.9.5.5.2a2.1,2.1,0,0,0,1.1,0,2.5,2.5,0,0,0,1.1-.4,5.7,5.7,0,0,0,1.1-1.1l.2-.4,1.7-3,1.8-3.2,1.6-2.7A.8.8,0,0,0,37.8,22.1Z"/><circle class="cls-2" cx="24.2" cy="45.8" r="2.3"/><circle class="cls-2" cx="31.7" cy="45.8" r="2.3"/></g></g></svg>