<svg xmlns="http://www.w3.org/2000/svg" viewBox="0 0 43.18 53.47"><defs><style>.cls-1{fill:#4ecdc4;}.cls-2{fill:#fff;}.cls-3{fill:#1a535c;}</style></defs><title>function09</title><g id="レイヤー_2" data-name="レイヤー 2"><g id="レイヤー_1-2" data-name="レイヤー 1"><rect class="cls-1" y="6.85" width="43.18" height="46.62" rx="0.23"/><rect class="cls-2" x="3.18" y="11.89" width="36.82" height="38.15" rx="0.09"/><path class="cls-3" d="M33.94,4.62H27.62a6.25,6.25,0,0,0-12.06,0H9.24A1.36,1.36,0,0,0,7.89,6V8.12A1.36,1.36,0,0,0,9.24,9.47h24.7a1.35,1.35,0,0,0,1.34-1.35V6A1.35,1.35,0,0,0,33.94,4.62Z"/><path class="cls-1" d="M30.56,40.72H12.62a1.14,1.14,0,0,1-1.15-1.15V21.63a1.15,1.15,0,0,1,1.15-1.15H30.56a1.16,1.16,0,0,1,1.15,1.15V39.57A1.15,1.15,0,0,1,30.56,40.72Zm-16.79-2.3H29.41V22.78H13.77Z"/><path class="cls-3" d="M23.34,35.55a.9.9,0,0,1-.23,0,1.13,1.13,0,0,1-.78-.58l-3.81-7.07a1.15,1.15,0,0,1,2-1.09l3.15,5.85,9.79-7.83a1.15,1.15,0,1,1,1.44,1.79L24.06,35.3A1.13,1.13,0,0,1,23.34,35.55Z"/></g></g></svg>