<svg xmlns="http://www.w3.org/2000/svg" viewBox="0 0 65.64 32.43"><defs><style>.cls-1{fill:#4ecdc4;}</style></defs><title>function06</title><g id="レイヤー_2" data-name="レイヤー 2"><g id="レイヤー_1-2" data-name="レイヤー 1"><path class="cls-1" d="M65.64,27.59a4.89,4.89,0,0,0-6.75-4.5A8.2,8.2,0,0,0,59,21.77a8.84,8.84,0,0,0-8.84-8.84,9,9,0,0,0-1.88.2,15.74,15.74,0,0,0-31-.2,9.21,9.21,0,0,0-11.3,9c0,.31,0,.62,0,.92a4.66,4.66,0,0,0-1.13-.14,4.86,4.86,0,0,0-.42,9.71l57,0A4.88,4.88,0,0,0,65.64,27.59Z"/></g></g></svg>