<svg xmlns="http://www.w3.org/2000/svg" viewBox="0 0 125.34 41.98"><defs><style>.cls-1{fill:#fff;}.cls-2{fill:#4ecdc4;}.cls-3{fill:#1a535c;}</style></defs><title>function01</title><g id="レイヤー_2" data-name="レイヤー 2"><g id="レイヤー_1-2" data-name="レイヤー 1"><polygon class="cls-1" points="28.6 27.12 24.47 27.12 24.47 23 19.91 23 19.91 27.12 15.79 27.12 15.79 31.68 19.91 31.68 19.91 35.81 24.47 35.81 24.47 31.68 28.6 31.68 28.6 27.12"/><path class="cls-2" d="M122,38.51A2.45,2.45,0,0,1,119.57,41H86.73a2.46,2.46,0,0,1-2.45-2.47v-31A2.46,2.46,0,0,1,86.73,5h32.84A2.46,2.46,0,0,1,122,7.48Z"/><path class="cls-1" d="M119.57,42H86.73a3.46,3.46,0,0,1-3.45-3.47v-31A3.47,3.47,0,0,1,86.73,4h32.84A3.46,3.46,0,0,1,123,7.48v31A3.45,3.45,0,0,1,119.57,42ZM86.73,6a1.46,1.46,0,0,0-1.45,1.47v31A1.46,1.46,0,0,0,86.73,40h32.84A1.46,1.46,0,0,0,121,38.51v-31A1.46,1.46,0,0,0,119.57,6Z"/><path class="cls-3" d="M121,1H85.25A3.32,3.32,0,0,0,82,4.33v10a4.24,4.24,0,1,0,8.48,0,4.24,4.24,0,1,0,8.48,0,4.24,4.24,0,1,0,8.47,0,4.24,4.24,0,1,0,8.48,0h0a4.24,4.24,0,1,0,8.48,0v-10A3.32,3.32,0,0,0,121,1Z"/><path class="cls-1" d="M121,0H85.25A4.31,4.31,0,0,0,81,4.33v10a5.22,5.22,0,0,0,9.47,3.07,5.19,5.19,0,0,0,8.48,0,5.18,5.18,0,0,0,8.47,0,5.19,5.19,0,0,0,8.48,0,5.2,5.2,0,0,0,4.24,2.2,5.26,5.26,0,0,0,5.24-5.27v-10A4.32,4.32,0,0,0,121,0ZM86.19,17.58A3.26,3.26,0,0,1,83,14.31v-10A2.31,2.31,0,0,1,85.25,2h4.18V14.31A3.26,3.26,0,0,1,86.19,17.58Zm8.48,0a3.26,3.26,0,0,1-3.24-3.27V2h6.48V14.31A3.26,3.26,0,0,1,94.67,17.58Zm8.48,0a3.26,3.26,0,0,1-3.24-3.27V2h6.48V14.31A3.26,3.26,0,0,1,103.15,17.58Zm8.47,0a3.21,3.21,0,0,1-2.28-.95,3.26,3.26,0,0,1-1-2.32V2h6.47V14.31A3.26,3.26,0,0,1,111.62,17.58Zm11.72-3.27a3.24,3.24,0,1,1-6.48,0V2H121a2.31,2.31,0,0,1,2.3,2.33Z"/><polygon class="cls-1" points="109.55 27.12 105.42 27.12 105.42 23 100.87 23 100.87 27.12 96.74 27.12 96.74 31.68 100.87 31.68 100.87 35.81 105.42 35.81 105.42 31.68 109.55 31.68 109.55 27.12"/><path class="cls-2" d="M41.06,38.51A2.46,2.46,0,0,1,38.61,41H5.77a2.45,2.45,0,0,1-2.44-2.47v-31A2.46,2.46,0,0,1,5.77,5H38.61a2.46,2.46,0,0,1,2.45,2.47Z"/><path class="cls-1" d="M38.61,42H5.77a3.45,3.45,0,0,1-3.44-3.47v-31A3.46,3.46,0,0,1,5.77,4H38.61a3.47,3.47,0,0,1,3.45,3.47v31A3.46,3.46,0,0,1,38.61,42ZM5.77,6A1.45,1.45,0,0,0,4.33,7.48v31A1.45,1.45,0,0,0,5.77,40H38.61a1.46,1.46,0,0,0,1.45-1.47v-31A1.46,1.46,0,0,0,38.61,6Z"/><path class="cls-3" d="M40.09,1H4.3A3.32,3.32,0,0,0,1,4.33v10a4.24,4.24,0,1,0,8.48,0,4.24,4.24,0,1,0,8.47,0,4.24,4.24,0,1,0,8.48,0,4.24,4.24,0,1,0,8.48,0h0a4.24,4.24,0,1,0,8.47,0v-10A3.31,3.31,0,0,0,40.09,1Z"/><path class="cls-1" d="M40.09,0H4.3A4.32,4.32,0,0,0,0,4.33v10a5.22,5.22,0,0,0,9.48,3.07,5.18,5.18,0,0,0,8.47,0,5.19,5.19,0,0,0,8.48,0,5.19,5.19,0,0,0,8.48,0,5.2,5.2,0,0,0,4.23,2.2,5.26,5.26,0,0,0,5.24-5.27v-10A4.31,4.31,0,0,0,40.09,0ZM5.24,17.58A3.26,3.26,0,0,1,2,14.31v-10A2.31,2.31,0,0,1,4.3,2H8.48V14.31A3.27,3.27,0,0,1,5.24,17.58Zm8.47,0a3.26,3.26,0,0,1-3.23-3.27V2H17V14.31A3.26,3.26,0,0,1,13.71,17.58Zm8.48,0A3.27,3.27,0,0,1,19,14.31V2h6.48V14.31A3.26,3.26,0,0,1,22.19,17.58Zm8.48,0a3.21,3.21,0,0,1-2.29-.95,3.3,3.3,0,0,1-.95-2.32V2h6.48V14.31A3.27,3.27,0,0,1,30.67,17.58Zm11.71-3.27a3.24,3.24,0,1,1-6.47,0V2h4.18a2.31,2.31,0,0,1,2.29,2.33Z"/><polygon class="cls-1" points="28.6 27.12 24.47 27.12 24.47 23 19.91 23 19.91 27.12 15.79 27.12 15.79 31.68 19.91 31.68 19.91 35.81 24.47 35.81 24.47 31.68 28.6 31.68 28.6 27.12"/><path class="cls-3" d="M72,12.06h0a1.46,1.46,0,0,0-.11-.55v0a1.34,1.34,0,0,0-.32-.49L66,5.47a1.51,1.51,0,0,0-2.12,0,1.49,1.49,0,0,0,0,2.12l3,3H55.7a1.5,1.5,0,0,0,0,3H66.87l-3,3a1.49,1.49,0,0,0,0,2.12,1.5,1.5,0,0,0,2.12,0l5.53-5.53a1.43,1.43,0,0,0,.32-.49v0A1.46,1.46,0,0,0,72,12.06Z"/><path class="cls-2" d="M70.49,29.61H59.32l3-3a1.5,1.5,0,0,0-2.12-2.12l-5.52,5.52a1.37,1.37,0,0,0-.19.23l0,0a1.39,1.39,0,0,0-.11.21l0,.08a1.46,1.46,0,0,0-.05.2,1.36,1.36,0,0,0,0,.29,1.53,1.53,0,0,0,0,.3,1.05,1.05,0,0,0,.05.19l0,.09a2.12,2.12,0,0,0,.11.21l0,.05a1.37,1.37,0,0,0,.19.23l5.52,5.52a1.48,1.48,0,0,0,1.06.44,1.45,1.45,0,0,0,1.06-.44,1.49,1.49,0,0,0,0-2.12l-3-3H70.49a1.5,1.5,0,0,0,0-3Z"/></g></g></svg>