<svg xmlns="http://www.w3.org/2000/svg" viewBox="0 0 78.5 111.01"><defs><style>.cls-1{fill:#4ecdc4;}.cls-2{fill:#97a09f;}</style></defs><title>logo_v</title><g id="レイヤー_2" data-name="レイヤー 2"><g id="レイヤー_1-2" data-name="レイヤー 1"><path class="cls-1" d="M44.21,34.9,17.13,3.21a9.76,9.76,0,0,0-17,6.58v68.5H19.72V26.49L34.38,43.4a6.5,6.5,0,1,0,9.83-8.5Z"/><path class="cls-1" d="M68.64,0a9.72,9.72,0,0,0-7.55,3.64L41.35,26.73S46,32.06,47.1,33.49a6.62,6.62,0,0,1,1.6,4.24c0,.1.13.41.32.2s9.84-11.44,9.84-11.44v51.8H78.43V9.79A9.79,9.79,0,0,0,68.64,0Zm6.74,75.36H61.78V18.72S50.41,31.81,50.28,31.93s-.24.13-.34-.07a10,10,0,0,0-.75-1c-.33-.42-3.61-4-3.61-4L63.39,5.89a7,7,0,0,1,5.48-2.64c3.91,0,6.51,3.18,6.51,7.09Z"/><path class="cls-2" d="M15.52,91.34h2.6v19.44h-2.8V95.66l-6,7.51H8.83L2.78,95.66v15.12H0V91.34H2.64l6.45,8Z"/><path class="cls-2" d="M30.11,110.78v-1.64a5.86,5.86,0,0,1-1.84,1.38,4.9,4.9,0,0,1-2.07.49A4.25,4.25,0,0,1,24,110.4a3.86,3.86,0,0,1-1.54-1.64,8.15,8.15,0,0,1-.53-3.44V98h2.54v7.3a5.06,5.06,0,0,0,.57,2.81,2.33,2.33,0,0,0,2,.8,3.7,3.7,0,0,0,3.07-1.77V98h2.54v12.8Z"/><path class="cls-2" d="M35.58,109.87v-2.73a12,12,0,0,0,2.19,1.22,5.13,5.13,0,0,0,1.89.46,2.34,2.34,0,0,0,1.36-.39,1.12,1.12,0,0,0,.57-.93,1.26,1.26,0,0,0-.37-.93,8.31,8.31,0,0,0-1.59-1.06,11.54,11.54,0,0,1-3.21-2.33,3.38,3.38,0,0,1-.75-2.11,3,3,0,0,1,1.14-2.41,4.56,4.56,0,0,1,3-.93,8.13,8.13,0,0,1,3.86,1.06v2.5a7.74,7.74,0,0,0-3.69-1.36,2.12,2.12,0,0,0-1.19.31,1,1,0,0,0-.45.83,1.16,1.16,0,0,0,.41.85,6.92,6.92,0,0,0,1.43,1l.91.51c2.13,1.21,3.2,2.54,3.2,4A3.18,3.18,0,0,1,43,110a4.86,4.86,0,0,1-3.17,1,7.42,7.42,0,0,1-2-.25A14,14,0,0,1,35.58,109.87Z"/><path class="cls-2" d="M55.33,110.78v-1.64a5.9,5.9,0,0,1-1.85,1.38,4.89,4.89,0,0,1-2.06.49,4.29,4.29,0,0,1-2.24-.61,3.92,3.92,0,0,1-1.54-1.64,8.19,8.19,0,0,1-.52-3.44V98h2.53v7.3a5,5,0,0,0,.58,2.81,2.31,2.31,0,0,0,2,.8,3.71,3.71,0,0,0,3.08-1.77V98h2.53v12.8Z"/><path class="cls-2" d="M61.31,91.34h2.53V98.9a5.86,5.86,0,0,1,3.51-1.2,5,5,0,0,1,4,1.84,7.09,7.09,0,0,1,1.54,4.72A6.62,6.62,0,0,1,71,109.18,6.69,6.69,0,0,1,66.1,111a13.46,13.46,0,0,1-2.61-.27,8.43,8.43,0,0,1-2.18-.67Zm2.53,10v6.93a9.21,9.21,0,0,0,2.66.39,3.51,3.51,0,0,0,2.75-1.2,4.43,4.43,0,0,0,1.06-3.07,4.69,4.69,0,0,0-1-3.1,3.21,3.21,0,0,0-2.6-1.2A4.52,4.52,0,0,0,63.84,101.32Z"/><path class="cls-2" d="M77,92.6a1.47,1.47,0,0,1,1.07.43,1.46,1.46,0,0,1,0,2.11,1.45,1.45,0,0,1-1.07.45,1.41,1.41,0,0,1-1-.45,1.44,1.44,0,0,1-.44-1A1.52,1.52,0,0,1,77,92.6ZM75.73,98h2.53v12.8H75.73Z"/></g></g></svg>