<svg xmlns="http://www.w3.org/2000/svg" viewBox="0 0 201.93 81.33"><defs><style>.cls-1{fill:#4ecdc4;}.cls-2{fill:#97a09f;}</style></defs><title>logo_h</title><g id="レイヤー_2" data-name="レイヤー 2"><g id="レイヤー_1-2" data-name="レイヤー 1"><path class="cls-1" d="M45.61,36.13l-28-32.81A10.1,10.1,0,0,0,0,10.13V81H20.26V27.43l15.18,17.5a6.72,6.72,0,1,0,10.17-8.8Z"/><path class="cls-1" d="M70.91,0a10.07,10.07,0,0,0-7.82,3.77L42.66,27.67s4.84,5.52,6,7a6.88,6.88,0,0,1,1.66,4.4c0,.11.13.42.32.2S60.78,27.43,60.78,27.43V81H81V10.13A10.13,10.13,0,0,0,70.91,0Zm7,78H63.8V19.38L51.9,33.06a.2.2,0,0,1-.35-.08,9.49,9.49,0,0,0-.78-1.07c-.34-.44-3.74-4.17-3.74-4.17L65.47,6.1a7.31,7.31,0,0,1,5.67-2.73c4,0,6.74,3.28,6.74,7.34Z"/><path class="cls-2" d="M117.69,55h3.48V81h-3.74V60.8l-8,10h-.69l-8.09-10V81H96.94V55h3.52l8.64,10.68Z"/><path class="cls-2" d="M137.22,81v-2.2a8,8,0,0,1-2.47,1.84,6.38,6.38,0,0,1-2.76.66,5.76,5.76,0,0,1-3-.81,5.29,5.29,0,0,1-2.07-2.2,11.11,11.11,0,0,1-.69-4.61v-9.8h3.38v9.76a6.66,6.66,0,0,0,.78,3.76,3.11,3.11,0,0,0,2.7,1.07,5,5,0,0,0,4.12-2.37V63.91h3.38V81Z"/><path class="cls-2" d="M144.53,79.8V76.15a15.23,15.23,0,0,0,2.93,1.63,6.78,6.78,0,0,0,2.53.63,3.15,3.15,0,0,0,1.82-.53,1.48,1.48,0,0,0,.76-1.24,1.67,1.67,0,0,0-.49-1.24A11.5,11.5,0,0,0,150,74a15,15,0,0,1-4.29-3.12,4.49,4.49,0,0,1-1-2.82,4,4,0,0,1,1.54-3.22,6.07,6.07,0,0,1,3.95-1.25A10.82,10.82,0,0,1,155.29,65v3.35a10.31,10.31,0,0,0-4.93-1.83,2.72,2.72,0,0,0-1.59.42,1.28,1.28,0,0,0-.61,1.11,1.58,1.58,0,0,0,.55,1.14,9.47,9.47,0,0,0,1.92,1.3l1.22.69q4.28,2.42,4.28,5.36A4.26,4.26,0,0,1,154.48,80a6.46,6.46,0,0,1-4.23,1.35,10.18,10.18,0,0,1-2.72-.33A16.83,16.83,0,0,1,144.53,79.8Z"/><path class="cls-2" d="M170.94,81v-2.2a7.94,7.94,0,0,1-2.46,1.84,6.42,6.42,0,0,1-2.77.66,5.73,5.73,0,0,1-3-.81,5.22,5.22,0,0,1-2.07-2.2,10.91,10.91,0,0,1-.7-4.61v-9.8h3.39v9.76a6.76,6.76,0,0,0,.77,3.76,3.14,3.14,0,0,0,2.71,1.07,5,5,0,0,0,4.11-2.37V63.91h3.39V81Z"/><path class="cls-2" d="M179,55h3.38v10.1a7.89,7.89,0,0,1,4.7-1.6A6.63,6.63,0,0,1,192.35,66a9.45,9.45,0,0,1,2.06,6.31A8.87,8.87,0,0,1,192,78.88a9,9,0,0,1-6.6,2.45,18.07,18.07,0,0,1-3.49-.36,11.33,11.33,0,0,1-2.91-.89Zm3.38,13.34v9.27a12.22,12.22,0,0,0,3.56.52,4.7,4.7,0,0,0,3.68-1.6A6,6,0,0,0,191,72.45a6.26,6.26,0,0,0-1.33-4.15,4.3,4.3,0,0,0-3.47-1.6A6,6,0,0,0,182.33,68.37Z"/><path class="cls-2" d="M199.91,56.7a2,2,0,0,1,1.43.58,1.87,1.87,0,0,1,.59,1.41,1.93,1.93,0,0,1-.59,1.42,2,2,0,0,1-1.43.59,1.86,1.86,0,0,1-1.38-.6,1.93,1.93,0,0,1-.6-1.41,1.9,1.9,0,0,1,.6-1.38A1.84,1.84,0,0,1,199.91,56.7Zm-1.68,7.21h3.39V81h-3.39Z"/></g></g></svg>