<svg xmlns="http://www.w3.org/2000/svg" viewBox="0 0 81.04 81.04"><defs><style>.cls-1{fill:#4ecdc4;}</style></defs><title>logo_m</title><g id="レイヤー_2" data-name="レイヤー 2"><g id="レイヤー_1-2" data-name="レイヤー 1"><path class="cls-1" d="M45.61,36.13l-28-32.81A10.1,10.1,0,0,0,0,10.13V81H20.26V27.43l15.18,17.5a6.72,6.72,0,1,0,10.17-8.8Z"/><path class="cls-1" d="M70.91,0a10.07,10.07,0,0,0-7.82,3.77L42.66,27.67s4.84,5.52,6,7a6.88,6.88,0,0,1,1.66,4.4c0,.11.13.42.32.2S60.78,27.43,60.78,27.43V81H81V10.13A10.13,10.13,0,0,0,70.91,0Zm7,78H63.8V19.38L51.9,33.06a.2.2,0,0,1-.35-.08,9.49,9.49,0,0,0-.78-1.07c-.34-.44-3.74-4.17-3.74-4.17L65.47,6.1a7.31,7.31,0,0,1,5.67-2.73c4,0,6.74,3.28,6.74,7.34Z"/></g></g></svg>