<svg xmlns="http://www.w3.org/2000/svg" viewBox="0 0 22.13 21.13"><defs><style>.cls-1{fill:#4ecdc4;}</style></defs><title>icon_usersite</title><g id="レイヤー_2" data-name="レイヤー 2"><g id="レイヤー_1-2" data-name="レイヤー 1"><polygon class="cls-1" points="7.43 17.54 7.43 16.1 5.87 16.1 5.87 19.1 11.02 19.1 11.02 17.54 7.43 17.54 7.43 17.54"/><polygon class="cls-1" points="7.43 3.59 7.43 5.03 5.87 5.03 5.87 2.03 11.02 2.03 11.02 3.59 7.43 3.59 7.43 3.59"/><path class="cls-1" d="M21.44,2.31l-.53-.15L20.47,2l-6.86-2a1.26,1.26,0,0,0-.33,0,1.16,1.16,0,0,0-1.15,1.16V20a1.16,1.16,0,0,0,1.15,1.16,1.26,1.26,0,0,0,.33-.05l6.86-2,.44-.13.53-.15a1,1,0,0,0,.69-.91V3.22A1,1,0,0,0,21.44,2.31Zm-7.6,10V9.06a.38.38,0,0,1,.38-.38h1.26a.38.38,0,0,1,.38.38v3.22a.37.37,0,0,1-.38.37H14.22A.37.37,0,0,1,13.84,12.28Z"/><polygon class="cls-1" points="10.29 10.56 4.79 5.69 4.79 9.38 0 9.38 0 11.75 4.79 11.75 4.79 15.44 10.29 10.56"/></g></g></svg>