<svg xmlns="http://www.w3.org/2000/svg" viewBox="0 0 17.17 17.17"><defs><style>.cls-1{fill:#fff;}</style></defs><title>icon_zoom</title><g id="レイヤー_2" data-name="レイヤー 2"><g id="レイヤー_1-2" data-name="レイヤー 1"><path class="cls-1" d="M11.14,7.31H9.86V6A1.28,1.28,0,1,0,7.31,6V7.31H6A1.28,1.28,0,1,0,6,9.86H7.31v1.28a1.28,1.28,0,1,0,2.55,0V9.86h1.28a1.28,1.28,0,1,0,0-2.55Z"/><path class="cls-1" d="M8.58,17.17a8.59,8.59,0,1,1,8.59-8.59A8.59,8.59,0,0,1,8.58,17.17ZM8.58,2a6.59,6.59,0,1,0,6.59,6.58A6.59,6.59,0,0,0,8.58,2Z"/></g></g></svg>