<svg xmlns="http://www.w3.org/2000/svg" viewBox="0 0 41.22 36.2"><defs><style>.cls-1{fill:#1a535c;}.cls-2{fill:#4ecdc4;}</style></defs><title>icon_news</title><g id="レイヤー_2" data-name="レイヤー 2"><g id="レイヤー_1-2" data-name="レイヤー 1"><path class="cls-1" d="M4.42,33.89c-.24.81-.16,1.5,1.1,1.5H9.83a1.21,1.21,0,0,0,1.36-1c.22-.79,1.61-7.47,1.61-7.47H6S4.85,32.51,4.42,33.89Z"/><path class="cls-2" d="M10.18,25.79V10.45H7.67a7.68,7.68,0,0,0,0,15.35Z"/><path class="cls-2" d="M41.19,1.6c0-1.9-1.57-2.08-3.27-.69C28,9,24.83,9.54,15.42,10.45H12.76V25.79h2.67c9.41.89,12.58,1.41,22.5,9.51,1.7,1.38,3.28,1.2,3.28-.7Z"/></g></g></svg>