<svg xmlns="http://www.w3.org/2000/svg" viewBox="0 0 32.93 66.43"><defs><style>.cls-1{fill:#4ecdc4;}.cls-2{fill:#1a535c;}</style></defs><title>icon_bottle</title><g id="レイヤー_2" data-name="レイヤー 2"><g id="レイヤー_1-2" data-name="レイヤー 1"><path class="cls-1" d="M26.7,19.66V14.83a1.16,1.16,0,0,0-1.16-1.16H7.4a1.15,1.15,0,0,0-1.16,1.16v4.83A8.17,8.17,0,0,0,0,27.59V58.26a8.17,8.17,0,0,0,8.17,8.17h16.6a8.16,8.16,0,0,0,8.16-8.17V27.59A8.16,8.16,0,0,0,26.7,19.66ZM20.17,43.88h0v6.95H12.79V43.88H5.84V36.52h7V29.58h7.36v6.94h6.94v7.36H20.17Z"/><path class="cls-2" d="M7,11.35H26a1.07,1.07,0,0,0,1.08-1.07V1.07A1.07,1.07,0,0,0,26,0H7A1.07,1.07,0,0,0,5.89,1.07v9.21A1.07,1.07,0,0,0,7,11.35Z"/></g></g></svg>