<svg xmlns="http://www.w3.org/2000/svg" viewBox="0 0 62.34 62.35"><defs><style>.cls-1{fill:#4ecdc4;}</style></defs><title>icon_gear</title><g id="レイヤー_2" data-name="レイヤー 2"><g id="レイヤー_1-2" data-name="レイヤー 1"><path class="cls-1" d="M57.59,36.6a27,27,0,0,0,0-10.85l4.59-1.9.14-.06h0l-3.9-9.41-4.75,2c-.35-.55-.73-1.08-1.13-1.6l0,0a26.78,26.78,0,0,0-5-4.95l0,0Q46.81,9.19,46,8.66l2-4.74L38.57,0l0,0h0L36.6,4.76a27,27,0,0,0-10.85,0L23.79,0,14.38,3.89l0,.06h0l1.95,4.7A27,27,0,0,0,8.66,16.3l-4.74-2L0,23.74l0,0,0,.08,4.71,1.95a27.12,27.12,0,0,0,0,10.77L0,38.52l3.89,9.41h0L4,48l4.74-2c.37.56.78,1.1,1.2,1.63.12.16.23.34.36.5a27.41,27.41,0,0,0,6,5.49l-2,4.72.09,0,0,0,9.42,3.89,2-4.74a27,27,0,0,0,10.79,0l2,4.7,0,0,0,.05L48,58.43l-2-4.74A27,27,0,0,0,53.69,46L58.39,48v0l.05,0,3.89-9.42ZM11.38,27.74A20,20,0,0,1,23.49,12.6h0a19.75,19.75,0,0,1,4.25-1.22l.92-.16V25.93l-.39.23a5.7,5.7,0,0,0-2.11,2.11l-.23.39H11.22ZM28.66,51.09l-.92-.16A20,20,0,0,1,11.38,34.57l-.16-.92H25.93l.23.39a5.77,5.77,0,0,0,2.11,2.11l.39.23Zm2.49-17.25a2.68,2.68,0,0,1-1.89-4.58,2.67,2.67,0,0,1,3.79,0,2.69,2.69,0,0,1-1.9,4.58Zm19.78.73A20,20,0,0,1,38.82,49.7h0a19.77,19.77,0,0,1-4.25,1.23l-.92.16V36.38l.39-.23A5.85,5.85,0,0,0,36.15,34l.23-.39H51.09ZM36.38,28.66l-.23-.39A5.62,5.62,0,0,0,34,26.16l-.39-.23V11.22l.92.16a19.75,19.75,0,0,1,4.25,1.22h0A20,20,0,0,1,50.93,27.74l.16.92Z"/></g></g></svg>