<svg xmlns="http://www.w3.org/2000/svg" viewBox="0 0 46.3 41.71"><defs><style>.cls-1{fill:#4ecdc4;}.cls-2{fill:#fff;}.cls-3{fill:#1a535c;}</style></defs><title>icon_pad</title><g id="レイヤー_2" data-name="レイヤー 2"><g id="レイヤー_1-2" data-name="レイヤー 1"><path class="cls-1" d="M0,4V32.71a4,4,0,0,0,4,4H42.26a4,4,0,0,0,4-4V4a4,4,0,0,0-4-4H4A4,4,0,0,0,0,4Z"/><rect class="cls-2" x="4.64" y="4.51" width="34.49" height="27.72"/><path class="cls-2" d="M43.91,18.37a1.63,1.63,0,1,1-1.63-1.63A1.63,1.63,0,0,1,43.91,18.37Z"/><path class="cls-3" d="M29.73,31.33V29.25a2.08,2.08,0,0,0-4.16,0V27.17a2.08,2.08,0,0,0-4.16,0V18.85a2.08,2.08,0,0,0-4.15,0V35c-1.91-1.91-3.78-4.55-5.64-2.7a2.09,2.09,0,0,0,0,3l5.89,5.88a2.06,2.06,0,0,0,1.65.57c.63.05,12,0,12.65,0a2.05,2.05,0,0,0,2.08-2V31.33A2.08,2.08,0,0,0,29.73,31.33Z"/></g></g></svg>