<svg xmlns="http://www.w3.org/2000/svg" viewBox="0 0 40.01 40"><defs><style>.cls-1{fill:#1a535c;}.cls-2{fill:#4ecdc4;}</style></defs><title>icon_medicine</title><g id="レイヤー_2" data-name="レイヤー 2"><g id="レイヤー_1-2" data-name="レイヤー 1"><path class="cls-1" d="M36.55,3.45a11.83,11.83,0,0,0-16.7,0L13.41,9.89,30.1,26.59l6.45-6.44A11.81,11.81,0,0,0,36.55,3.45ZM32,4.47A2,2,0,0,1,29.7,6a10.78,10.78,0,0,0-1.88-.18A9.9,9.9,0,0,0,25.94,6a2,2,0,0,1-1.78-.55,1.92,1.92,0,0,1-.55-1,2,2,0,0,1,1.58-2.32,13.64,13.64,0,0,1,2.63-.26,13.82,13.82,0,0,1,2.64.26A2,2,0,0,1,32,4.47Z"/><path class="cls-2" d="M3.46,19.84a11.81,11.81,0,1,0,16.7,16.7l6.43-6.43L9.89,13.41Z"/></g></g></svg>