<svg xmlns="http://www.w3.org/2000/svg" viewBox="0 0 64.89 46.53"><defs><style>.cls-1{fill:#1a535c;}.cls-2{fill:#4ecdc4;}.cls-3{fill:#fff;}</style></defs><title>icon_faq</title><g id="レイヤー_2" data-name="レイヤー 2"><g id="レイヤー_1-2" data-name="レイヤー 1"><path class="cls-1" d="M32.8,26.88A16.13,16.13,0,0,1,33.54,22a16.05,16.05,0,1,1,29.19,12.9A16.19,16.19,0,0,1,57,40.68L55,41.91v4.62l-1-.24a48.82,48.82,0,0,1-12.53-5.16l-.08-.05-.07,0a14.9,14.9,0,0,1-1.82-1.13,16.29,16.29,0,0,1-4.86-5.6A15.9,15.9,0,0,1,32.8,26.88Z"/><path class="cls-2" d="M38.69,30a20.87,20.87,0,0,1-6.21,7.15,21.42,21.42,0,0,1-2.32,1.45l-.1,0-.09.06a62.25,62.25,0,0,1-16,6.59l-1.28.31V39.7L10,38.13A20.52,20.52,0,0,1,0,20.5,20.52,20.52,0,0,1,20.51,0,20.58,20.58,0,0,1,40.06,14.29,20.77,20.77,0,0,1,41,20.5,20.31,20.31,0,0,1,38.69,30Z"/><path class="cls-3" d="M27.69,32.16a7.19,7.19,0,0,1-2.73.45,7.14,7.14,0,0,1-6.88-4.38c-3.83-.65-6.38-4-6.38-9.15,0-5.7,3.15-9.12,7.7-9.12s7.73,3.42,7.73,9.12c0,5-2.43,8.31-6.07,9.08a4.56,4.56,0,0,0,4.22,2.17,6.36,6.36,0,0,0,1.88-.27ZM19.4,26c2.94,0,4.87-2.67,4.87-7s-1.93-6.69-4.87-6.69-4.84,2.53-4.84,6.69S16.46,26,19.4,26Z"/><path class="cls-3" d="M51.78,29.44H46.92l-1.19,4H43.49l4.63-14h2.54l4.63,14H53Zm-.53-1.73-.55-1.87c-.48-1.52-.89-3.08-1.33-4.65h-.08c-.39,1.59-.83,3.13-1.29,4.65l-.56,1.87Z"/></g></g></svg>