<?xml version="1.0" encoding="utf-8"?>
<!-- Generator: Adobe Illustrator 24.1.3, SVG Export Plug-In . SVG Version: 6.00 Build 0)  -->
<svg version="1.1" id="_x31_0" xmlns="http://www.w3.org/2000/svg" xmlns:xlink="http://www.w3.org/1999/xlink" x="0px" y="0px"
	 viewBox="0 0 512 512" style="enable-background:new 0 0 512 512;" xml:space="preserve">
<style type="text/css">
	.st0{fill:#4ECDC4;}
	.st1{fill:#1A535C;}
</style>
<g>
	<path class="st0" d="M470.4,68.1H41.6C18.6,68.1,0,86.7,0,109.7v292.6c0,23,18.6,41.6,41.6,41.6h428.8c22.9,0,41.6-18.6,41.6-41.6
		V109.7C512,86.7,493.3,68.1,470.4,68.1z M114.4,190.6H81.6c-1.3,0-2.4-1.1-2.4-2.4v-46.2c0-1.3,1.1-2.4,2.4-2.4h32.9
		c1.3,0,2.4,1.1,2.4,2.4v46.2C116.8,189.5,115.7,190.6,114.4,190.6z M81.6,230.5h32.9c1.3,0,2.4,1.1,2.4,2.4v46.2
		c0,1.3-1.1,2.4-2.4,2.4H81.6c-1.3,0-2.4-1.1-2.4-2.4v-46.2C79.2,231.6,80.3,230.5,81.6,230.5z M81.6,321.4h32.9
		c1.3,0,2.4,1.1,2.4,2.4v46.2c0,1.3-1.1,2.4-2.4,2.4H81.6c-1.3,0-2.4-1.1-2.4-2.4v-46.2C79.2,322.5,80.3,321.4,81.6,321.4z
		 M215.9,198.1c0.2-0.5,0.4-0.9,0.6-1.3c0.2-0.5,0.5-0.9,0.9-1.3c0.5-0.6,1-1.1,1.6-1.6c0.4-0.3,0.7-0.6,1.1-0.8
		c0.5-0.2,0.9-0.4,1.4-0.6c0.5-0.2,1-0.2,1.6-0.3c1.8-0.2,3.7,0,5.4,1l95.6,55.2c5.8,3.4,5.8,11.8,0,15.1l-95.6,55.2
		c-1.8,1-3.6,1.3-5.4,1c-0.5-0.1-1.1-0.2-1.6-0.3c-0.5-0.2-1-0.4-1.4-0.6c-0.4-0.2-0.8-0.5-1.1-0.8c-0.6-0.5-1.1-1-1.6-1.6
		c-0.3-0.4-0.6-0.8-0.9-1.3c-0.2-0.4-0.4-0.9-0.6-1.3c-0.2-0.5-0.2-1-0.3-1.5c-0.1-0.4-0.2-0.8-0.2-1.2V200.8c0-0.4,0.1-0.8,0.2-1.2
		C215.7,199.1,215.8,198.6,215.9,198.1z M430.4,190.6h-32.9c-1.3,0-2.4-1.1-2.4-2.4v-46.2c0-1.3,1.1-2.4,2.4-2.4h32.9
		c1.3,0,2.4,1.1,2.4,2.4v46.2C432.8,189.5,431.7,190.6,430.4,190.6z M397.6,230.5h32.9c1.3,0,2.4,1.1,2.4,2.4v46.2
		c0,1.3-1.1,2.4-2.4,2.4h-32.9c-1.3,0-2.4-1.1-2.4-2.4v-46.2C395.2,231.6,396.3,230.5,397.6,230.5z M397.6,321.4h32.9
		c1.3,0,2.4,1.1,2.4,2.4v46.2c0,1.3-1.1,2.4-2.4,2.4h-32.9c-1.3,0-2.4-1.1-2.4-2.4v-46.2C395.2,322.5,396.3,321.4,397.6,321.4z"/>
</g>
<path class="st1" d="M105.5,361.3"/>
</svg>
