<svg xmlns="http://www.w3.org/2000/svg" viewBox="0 0 46.59 45.52"><defs><style>.cls-1{fill:#4ecdc4;stroke-width:1.5px;}.cls-1,.cls-3{stroke:#fff;stroke-miterlimit:10;}.cls-2{fill:#fff;}.cls-3{fill:#1a535c;stroke-width:1.3px;}</style></defs><title>icon_event</title><g id="レイヤー_2" data-name="レイヤー 2"><g id="レイヤー_1-2" data-name="レイヤー 1"><rect class="cls-1" x="0.77" y="5.58" width="45.07" height="39.18" rx="2.17"/><rect class="cls-2" x="32.4" y="26.29" width="4.98" height="4.98" transform="translate(-0.1 0.12) rotate(-0.2)"/><rect class="cls-2" x="24.68" y="26.32" width="4.98" height="4.98" transform="translate(-0.1 0.09) rotate(-0.19)"/><rect class="cls-2" x="16.96" y="26.34" width="4.98" height="4.98" transform="translate(-0.1 0.07) rotate(-0.2)"/><rect class="cls-2" x="9.24" y="26.37" width="4.98" height="4.98" transform="translate(-0.1 0.04) rotate(-0.19)"/><rect class="cls-2" x="32.37" y="18.06" width="4.98" height="4.98" transform="translate(-0.07 0.12) rotate(-0.19)"/><rect class="cls-2" x="24.65" y="18.09" width="4.98" height="4.98" transform="translate(-0.07 0.09) rotate(-0.19)"/><rect class="cls-2" x="16.93" y="18.12" width="4.98" height="4.98" transform="translate(-0.07 0.07) rotate(-0.19)"/><rect class="cls-2" x="9.21" y="18.14" width="4.98" height="4.98" transform="translate(-0.07 0.04) rotate(-0.19)"/><rect class="cls-2" x="32.43" y="34.52" width="4.98" height="4.98" transform="translate(-0.13 0.12) rotate(-0.19)"/><rect class="cls-2" x="24.71" y="34.55" width="4.98" height="4.98" transform="translate(-0.13 0.09) rotate(-0.19)"/><rect class="cls-2" x="16.99" y="34.57" width="4.98" height="4.98" transform="translate(-0.13 0.07) rotate(-0.19)"/><rect class="cls-2" x="9.27" y="34.6" width="4.98" height="4.98" transform="translate(-0.13 0.04) rotate(-0.19)"/><path class="cls-3" d="M45.74,12.53H.66L.77,7.75A2.18,2.18,0,0,1,2.94,5.58H43.67a2.17,2.17,0,0,1,2.17,2.17Z"/><rect class="cls-3" x="31.08" y="0.66" width="5.05" height="8.49" transform="translate(-0.02 0.11) rotate(-0.19)"/><rect class="cls-3" x="10.37" y="0.66" width="5.05" height="8.49" transform="translate(-0.02 0.04) rotate(-0.19)"/></g></g></svg>