<svg xmlns="http://www.w3.org/2000/svg" viewBox="0 0 43.68 41.38"><defs><style>.cls-1{fill:#4ecdc4;stroke-width:1.5px;}.cls-1,.cls-2{stroke:#fff;stroke-miterlimit:10;}.cls-2{fill:#1a535c;stroke-width:1.3px;}.cls-3{fill:#fff;}</style></defs><title>icon_drugstore</title><g id="レイヤー_2" data-name="レイヤー 2"><g id="レイヤー_1-2" data-name="レイヤー 1"><path class="cls-1" d="M40.71,38.16a2.46,2.46,0,0,1-2.45,2.47H5.42A2.45,2.45,0,0,1,3,38.16v-31A2.46,2.46,0,0,1,5.42,4.66H38.26a2.46,2.46,0,0,1,2.45,2.47Z"/><path class="cls-2" d="M4,.65A3.32,3.32,0,0,0,.65,4V14a4.24,4.24,0,1,0,8.48,0V.65Z"/><path class="cls-2" d="M17.6.65V14a4.24,4.24,0,1,0,8.48,0h0V.65Z"/><path class="cls-2" d="M9.13.65V14a4.24,4.24,0,1,0,8.47,0V.65Z"/><path class="cls-2" d="M26.08.65V14h0a4.24,4.24,0,1,0,8.48,0h0V.65Z"/><path class="cls-2" d="M39.74.65H34.56V14A4.24,4.24,0,1,0,43,14V4A3.31,3.31,0,0,0,39.74.65Z"/><rect class="cls-3" x="15.44" y="26.77" width="12.81" height="4.56"/><rect class="cls-3" x="15.44" y="26.77" width="12.81" height="4.56" transform="translate(-7.21 50.89) rotate(-90)"/></g></g></svg>