<svg xmlns="http://www.w3.org/2000/svg" viewBox="0 0 58.17 41.71"><defs><style>.cls-1{fill:#1a535c;}.cls-2{fill:#4ecdc4;}.cls-3{fill:#fff;}</style></defs><title>icon_communication</title><g id="レイヤー_2" data-name="レイヤー 2"><g id="レイヤー_1-2" data-name="レイヤー 1"><path class="cls-1" d="M29.4,24.1a14.31,14.31,0,0,1,4.21-10.17A14.39,14.39,0,0,1,56.24,31.31a14.57,14.57,0,0,1-5.1,5.16l-1.85,1.1v4.14c-.29-.06-.59-.14-.9-.22a43.22,43.22,0,0,1-11.24-4.62l-.07,0-.07,0a17.11,17.11,0,0,1-1.63-1,15.12,15.12,0,0,1-1.82-1.56A14.34,14.34,0,0,1,29.4,24.1Z"/><path class="cls-2" d="M34.68,26.89a18.66,18.66,0,0,1-3.23,4.42,18.41,18.41,0,0,1-2.33,2A18.65,18.65,0,0,1,27,34.61l-.09,0-.08.05A55.46,55.46,0,0,1,12.5,40.61l-1.15.28v-5.3L9,34.18a18.38,18.38,0,0,1-9-15.8,18.39,18.39,0,0,1,35.91-5.57,18.52,18.52,0,0,1,.85,5.57A18.18,18.18,0,0,1,34.68,26.89Z"/><path class="cls-3" d="M47.21,21.25a1.15,1.15,0,1,1-1.15,1.15A1.14,1.14,0,0,1,47.21,21.25Zm-7.41,0a1.15,1.15,0,1,1-1.15,1.15A1.14,1.14,0,0,1,39.8,21.25Zm7.51,6.91a6.7,6.7,0,0,1-9.44-1.63h11A6.88,6.88,0,0,1,47.31,28.16Z"/><path class="cls-3" d="M14.43,18.56A1.54,1.54,0,1,0,12.9,17,1.53,1.53,0,0,0,14.43,18.56Z"/><path class="cls-3" d="M24.29,18.56A1.54,1.54,0,1,0,22.76,17,1.53,1.53,0,0,0,24.29,18.56Z"/><path class="cls-3" d="M19.2,26.38a8.93,8.93,0,0,0,7.35-3.85H11.85A9,9,0,0,0,19.2,26.38Z"/></g></g></svg>