<svg xmlns="http://www.w3.org/2000/svg" viewBox="0 0 53.5 46.08"><defs><style>.cls-1{fill:#1a535c;}.cls-2{fill:#4ecdc4;}.cls-3{fill:#fff;}</style></defs><title>icon_blog</title><g id="レイヤー_2" data-name="レイヤー 2"><g id="レイヤー_1-2" data-name="レイヤー 1"><polygon class="cls-1" points="48.5 3.54 44.98 0 44.98 0.01 44.96 0 44.96 8.53 53.5 8.53 48.5 3.54"/><path class="cls-2" d="M42.91,8.53V0H18.51A2.56,2.56,0,0,0,16,2.56V44.32a1.76,1.76,0,0,0,1.76,1.76h34a1.76,1.76,0,0,0,1.77-1.76V10.58H45A2.05,2.05,0,0,1,42.91,8.53Z"/><rect class="cls-3" x="38.24" y="15.87" width="9.87" height="8.48"/><rect class="cls-3" x="22.79" y="16" width="11.59" height="1.29"/><rect class="cls-3" x="22.79" y="22.94" width="11.59" height="1.29"/><rect class="cls-3" x="22.79" y="28.34" width="25.33" height="1.29"/><rect class="cls-3" x="22.79" y="32.67" width="25.33" height="1.29"/><rect class="cls-3" x="22.79" y="37" width="25.33" height="1.29"/><rect class="cls-3" x="22.79" y="19.47" width="11.59" height="1.29"/><rect class="cls-1" x="7.64" y="8.62" width="8.65" height="28.6" transform="translate(-11.26 11.56) rotate(-36.37)"/><polygon class="cls-3" points="25.57 41.4 23.93 31.87 20.44 34.43 16.96 37 25.57 41.4"/><polygon class="cls-1" points="21.82 39.48 25.57 41.4 24.87 37.33 21.82 39.48"/></g></g></svg>