<svg xmlns="http://www.w3.org/2000/svg" viewBox="0 0 59.73 53.92"><defs><style>.cls-1{fill:#1a535c;}.cls-2{fill:#4ecdc4;}</style></defs><title>icon_tablet</title><g id="レイヤー_2" data-name="レイヤー 2"><g id="レイヤー_1-2" data-name="レイヤー 1"><path class="cls-1" d="M52.78,34.29C46.59,38,38.44,40,29.83,40s-16.77-2-23-5.67A24.94,24.94,0,0,1,0,28.5v8.88H.06C1,46.61,14,53.92,29.83,53.92s28.82-7.31,29.76-16.54h.06V28.5A24.94,24.94,0,0,1,52.78,34.29Z"/><path class="cls-2" d="M59.73,17.6C59.73,7.88,46.39,0,29.93,0A45.75,45.75,0,0,0,13.61,2.87l41.62,24C58.08,24.2,59.73,21,59.73,17.6Z"/><path class="cls-2" d="M.14,17.6c0,9.72,13.34,17.6,29.79,17.6,8.54,0,16.24-2.12,21.67-5.52L9,5.09C3.52,8.28.14,12.7.14,17.6Z"/></g></g></svg>