<!--?xml version="1.0" encoding="utf-8"?-->
<!-- Generator: Adobe Illustrator 18.1.1, SVG Export Plug-In . SVG Version: 6.00 Build 0)  -->

<svg version="1.1" id="_x31_0" xmlns="http://www.w3.org/2000/svg" xmlns:xlink="http://www.w3.org/1999/xlink" x="0px" y="0px" viewBox="0 0 512 512" style="width: 256px; height: 256px; opacity: 1;" xml:space="preserve">
<style type="text/css">
	.st0{fill:#374149;}
</style>
<g>
	<path class="st0" d="M470.398,68.08H41.598C18.637,68.08,0,86.721,0,109.678v292.641c0,22.961,18.637,41.602,41.598,41.602h428.801
		c22.879,0,41.602-18.641,41.602-41.602V109.678C512,86.721,493.278,68.08,470.398,68.08z M114.43,190.553H81.566
		c-1.309,0-2.371-1.058-2.371-2.367v-46.246c0-1.305,1.058-2.363,2.367-2.363h32.867c1.309,0,2.371,1.058,2.371,2.367v46.242
		C116.801,189.494,115.738,190.553,114.43,190.553z M81.562,230.51h32.867c1.309,0,2.371,1.058,2.371,2.367v46.242
		c0,1.309-1.062,2.367-2.371,2.367H81.562c-1.305,0-2.367-1.058-2.367-2.367v-46.242C79.195,231.568,80.254,230.51,81.562,230.51z
		 M81.562,321.443h32.867c1.309,0,2.371,1.058,2.371,2.367v46.242c0,1.309-1.062,2.371-2.371,2.371H81.566
		c-1.309,0-2.371-1.062-2.371-2.371v-46.246C79.195,322.502,80.254,321.443,81.562,321.443z M215.93,198.064
		c0.153-0.472,0.352-0.914,0.574-1.339c0.242-0.454,0.539-0.863,0.851-1.262c0.473-0.598,1.004-1.122,1.606-1.574
		c0.367-0.278,0.734-0.551,1.141-0.77c0.461-0.242,0.938-0.446,1.438-0.606c0.504-0.16,1.031-0.246,1.57-0.317
		c1.793-0.234,3.679,0.024,5.445,1.043l95.622,55.207c5.824,3.359,5.824,11.766,0,15.129l-95.622,55.207
		c-1.762,1.019-3.648,1.274-5.438,1.043c-0.538-0.07-1.074-0.157-1.582-0.321c-0.496-0.16-0.977-0.359-1.434-0.606
		c-0.406-0.218-0.774-0.492-1.141-0.77c-0.602-0.453-1.133-0.972-1.606-1.57c-0.312-0.402-0.609-0.809-0.851-1.262
		c-0.222-0.426-0.422-0.87-0.574-1.339c-0.164-0.489-0.238-1.012-0.313-1.539c-0.054-0.398-0.164-0.778-0.164-1.203V200.802
		c0-0.422,0.11-0.801,0.164-1.203C215.691,199.076,215.766,198.553,215.93,198.064z M430.43,190.553h-32.863
		c-1.309,0-2.371-1.058-2.371-2.367v-46.246c0-1.305,1.058-2.363,2.367-2.363h32.867c1.309,0,2.371,1.058,2.371,2.367v46.242
		C432.801,189.494,431.738,190.553,430.43,190.553z M397.562,230.51h32.867c1.309,0,2.371,1.058,2.371,2.367v46.242
		c0,1.309-1.062,2.367-2.371,2.367h-32.867c-1.305,0-2.367-1.058-2.367-2.367v-46.242
		C395.195,231.568,396.254,230.51,397.562,230.51z M397.562,321.443h32.867c1.309,0,2.371,1.058,2.371,2.367v46.242
		c0,1.309-1.062,2.371-2.371,2.371h-32.863c-1.309,0-2.371-1.062-2.371-2.371v-46.246
		C395.195,322.502,396.254,321.443,397.562,321.443z" style="fill: rgb(75, 75, 75);"></path>
</g>
</svg>
