<svg xmlns="http://www.w3.org/2000/svg" width="30.44" height="23.5" viewBox="0 0 30.44 23.5">
  <defs>
    <style>
      .cls-1 {
        fill: #fff;
        fill-rule: evenodd;
      }
    </style>
  </defs>
  <path id="function_num03.svg" class="cls-1" d="M1151.85,1581.41c0,2.85.35,4.67,1.18,5.92a5.924,5.924,0,0,0,5.41,2.63c2.59,0,4.16-.64,5.38-2.24,1.02-1.35,1.47-3.2,1.47-6.31v-6.4c0-2.81-.39-4.67-1.19-5.92-1.21-1.82-2.91-2.62-5.66-2.62a5.884,5.884,0,0,0-5.12,2.24c-1.06,1.34-1.47,3.2-1.47,6.3v6.4Zm10.08-.32c0,4.42-.93,6.08-3.39,6.08-2.4,0-3.33-1.69-3.33-6.08v-5.76c0-4.38.93-6.08,3.33-6.08,2.46,0,3.39,1.67,3.39,6.08v5.76Zm10.72-2.14h2.05a4.059,4.059,0,0,1,4.19,4.29c0,2.49-1.35,3.93-3.68,3.93a3.277,3.277,0,0,1-3.62-2.97l-3.23.38c0.35,3.58,2.69,5.38,6.94,5.38,4.58,0,6.98-2.28,6.98-6.63,0-2.88-.93-4.48-3.33-5.76,2.02-1.15,2.75-2.49,2.75-4.96,0-3.96-2.24-6.14-6.33-6.14-3.87,0-6.02,1.73-6.4,5.18l3.04,0.26a3.066,3.066,0,0,1,3.2-2.66c1.95,0,3.1,1.28,3.1,3.46s-1.5,3.55-3.84,3.55h-1.82v2.69Z" transform="translate(-1151.84 -1566.47)"/>
</svg>
