<svg xmlns="http://www.w3.org/2000/svg" width="30.094" height="23.5" viewBox="0 0 30.094 23.5">
  <defs>
    <style>
      .cls-1 {
        fill: #fff;
        fill-rule: evenodd;
      }
    </style>
  </defs>
  <path id="function_num02.svg" class="cls-1" d="M734.849,1581.41c0,2.85.351,4.67,1.183,5.92a5.918,5.918,0,0,0,5.408,2.63c2.592,0,4.16-.64,5.376-2.24,1.024-1.35,1.472-3.2,1.472-6.31v-6.4c0-2.81-.384-4.67-1.184-5.92-1.216-1.82-2.912-2.62-5.664-2.62a5.894,5.894,0,0,0-5.12,2.24c-1.056,1.34-1.471,3.2-1.471,6.3v6.4Zm10.079-.32c0,4.42-.928,6.08-3.392,6.08-2.4,0-3.328-1.69-3.328-6.08v-5.76c0-4.38.928-6.08,3.328-6.08,2.464,0,3.392,1.67,3.392,6.08v5.76Zm6.784,8.55h13.215v-2.82h-8.735l4.064-5.18c2.5-3.2,2.5-3.2,3.263-4.58a9.186,9.186,0,0,0,1.312-4.7c0-3.78-2.239-5.89-6.239-5.89-4.032,0-6.432,2.08-6.72,5.86l3.136,0.25c0.416-2.17,1.6-3.29,3.456-3.29a2.644,2.644,0,0,1,2.976,2.94c0,1.95-1.056,4.19-3.392,7.14l-6.336,8.03v2.24Z" transform="translate(-734.844 -1566.47)"/>
</svg>
