<svg xmlns="http://www.w3.org/2000/svg" width="26.187" height="23.5" viewBox="0 0 26.187 23.5">
  <defs>
    <style>
      .cls-1 {
        fill: #fff;
        fill-rule: evenodd;
      }
    </style>
  </defs>
  <path id="function_num01.svg" class="cls-1" d="M321.849,1581.41c0,2.85.352,4.67,1.183,5.92a5.918,5.918,0,0,0,5.408,2.63c2.592,0,4.16-.64,5.376-2.24,1.024-1.35,1.472-3.2,1.472-6.31v-6.4c0-2.81-.384-4.67-1.184-5.92-1.216-1.82-2.912-2.62-5.664-2.62a5.894,5.894,0,0,0-5.12,2.24c-1.056,1.34-1.471,3.2-1.471,6.3v6.4Zm10.079-.32c0,4.42-.928,6.08-3.392,6.08-2.4,0-3.328-1.69-3.328-6.08v-5.76c0-4.38.928-6.08,3.328-6.08,2.464,0,3.392,1.67,3.392,6.08v5.76Zm12.672,8.55h3.424v-22.85h-2.3l-5.984,2.56,1.056,2.62,3.808-1.63v19.3Z" transform="translate(-321.844 -1566.47)"/>
</svg>
